<svg class="bug" xmlns="http://www.w3.org/2000/svg" viewBox="500 510 850 850">
   <defs>
   <style>
      .bug {
         transform-origin: center;
         animation: 10s rotata ease-out infinite;
      } 

      @keyframes rotata {
         0% {
              
         }
         5%, 10% {
         transform: rotateZ(0deg);
         }
         8%, 15% {
         transform: rotateZ(2deg);
         }
         20% {
         transform: rotateZ(0deg);
         }
      }

      .cls-1 {
         fill: none;
         stroke:#fff;
         stroke-miterlimit: 10;
         stroke-width: 6px;
      }
   </style>
   </defs>
   <g id="_1" data-name="1">
   <path id="body" d="M1246,892c4-43,1-72,1-72l-8,3-1.5-42.5L1226,782l1-48-18,4-9-67s-21.5,13.5-27.5-2.5,60-146-27-155c0,0,35,17,22,93l-12-1L1167,628l-13.5-.5,9,24-13-2,14,36L1146,683s26,49,49,153c0,0,0-14-45-25l-30.5,18.5L1119,803s-52-36-152.5,17.5L1060,704l-21,3,22-35h-14l17-25-14,2,19-25-14,1s-32-46,13-91c0,0-40,3-44,36s27,90,2.5,128.5c-7.68,12.06-24.5-6.5-24.5-6.5l-19.5,48.5L970,732l-1.5,32.5-10-9-8,38-11-6c-24,24-15.5,66.5-15.5,66.5s-53,24-124,109l-73.5-20.5,35-103s101,39,155.5-3.5l-43.5,1.5,2-10L848,833l4.5-9.5-29,5,6-10-26,4L748,813s-45,60-45.5,147.5c-.11,19.51,75,40,75,40s-16,31-33,66l-97-32s106.5-224.5,63-266l-14,59-16-5,9,35-22-6,8,37-20-6L665,928s-43.5,72.5-47,113,112.5,61.5,112.5,61.5-68,28-48.5,121.5c0,0-27,87,78,110s120-14,120-14,108,1,125-79c0,0,184,1,216-301C1221,940,1242,935,1246,892Z"/>
   <path id="left_moustache" data-name="left moustache" class="cls-1" d="M848,1259s46.21,2.57,86-34.66"/>
   <path id="right_moustache" data-name="right moustache" class="cls-1" d="M727,1230s-24-35,4-82"/>
   <g id="left_eye" data-name="left eye"><path class="cls-1" d="M696.76,1259.26a127.91,127.91,0,0,0,34.24,0"/>
   <path class="cls-1" d="M710.08,1245s.95,19.45,11.41,37.6"/>
   <animateTransform attributeName="transform"
                          attributeType="XML"
                          type="rotate"
                          from="0 712 1260"
                          to="360 712 1260"
                          dur="1.1s"
                          repeatCount="indefinite"/>
   </g>
   <g id="right_eye" data-name="right eye">
   <path class="cls-1" d="M798.31,1292.45a187.89,187.89,0,0,0,45.93,0"/>
   <path class="cls-1" d="M816.17,1275s1.28,23.79,15.31,46"/>
   <animateTransform attributeName="transform"
                          attributeType="XML"
                          type="rotate"
                          from="0 825 1295"
                          to="360 825 1295"
                          dur="1.2s"
                          repeatCount="indefinite"/>
   </g>
   <path id="mouth" class="cls-1" d="M749,1229s1-38,41-42l-4,42,33-42s21,16,15,58"/>
   <g id="first_legs" data-name="first legs">
   <path class="cls-1" d="M1053.2,1177.92s-159.48-11.31-145.91-44.11S995.51,1006,995.51,1006l-13.57-44.11,22.62,6.78-17-43,36.19,7.92-20.36-40.72,23.75,6.79,14.71-65.6c65.6,88.22-91.62,289.55-91.62,289.55l104.06,22.62"/>
   <line class="cls-1" x1="1082.61" y1="1071.6" x2="990.99" y2="1064.36"/>
   <line class="cls-1" x1="1082.61" y1="1030.88" x2="1010.65" y2="1030.88"/>
   <path class="cls-1" d="M951.4,1064.82s-98.4,7.91-98.4-20.36,17-113.11,17-113.11h43l32.8-13.57v15.83l26-15.83v15.83L991,925.69"/>
   <path class="cls-1" d="M984.2,969.81s-61.07-2.27-90.48-3.4L880.15,1023l96.24,7.91"/>
   <path class="cls-1" d="M1040.76,968.67s22.62,1.14,45.24-22.62l-38.46,1.13"/>
   </g></g>
</svg>