<svg className="logo" xmlns="http://www.w3.org/2000/svg" viewBox="500 500 1000 1000">
    <g id="_5" data-name="5">
    <g id="CT"><path id="Bug" d="M842.5,1362c3,0,4.11-5.37,0-6-12-1.84-36-7-60-6s-52.57,8.54-61.5,10-9.94-9.7-.38-11.91C734,1345,748.31,1340,779.5,1338c31.5-2,65.22,8.18,66,3,3-20,9.94-20.81,20.18-15.86,9.27,4.48,17.12,11.18,25.72,16s43.12-4.35,43.6-10.16c.5-6-5-15.54-9.24-23.55a7.87,7.87,0,0,0-7.67-4.48c-11.5.25-23-.15-34.5.2-4.59.15-7-2-9.18-5.4-5.33-8.23-20.07-30-27.49-42.4S858.5,1235,863.5,1243s17.53,25.87,22,33.15a8,8,0,0,0,7.68,4.29c11.33-.22,22.66-.08,34-.07,8.2,0,9.11,1.05,12.54,8.39,4.15,8.88,9,17.42,13.58,26.11a95.75,95.75,0,0,0,5.16,9.52c2.54,5.61,18,2.16,20.54-.39,3-3-4.36-39.48-6.68-45.24s-17.86-33.19-24.68-45.14c-4.62-8.09-16.16-28.45-19.14-35.62s14-17,20-5c5.83,11.66,33.21,58.48,37.77,67.33,3.11,6,7.31,13.38,8.77,19.52s4,31.15,5,36.15,0,10,5,10a144.56,144.56,0,0,0,16.52.23c5-.29,5.54-5,6.12-8.35,1.62-9.4,2.35-18.94,3.64-28.4.92-6.67,2.13-13.29,3.29-19.93.7-4,3.75-4.69,7.14-4.71,12.5,0,25-.07,37.5-.13,7.35,0,10.29-1.71,15.29-8.71s22.55-39.91,29.39-51.1c6.61-9.9,24.61-2.9,18.4,11q-11.73,19-23.42,38c-5.24,8.5-10.43,17-15.82,25.46-2.21,3.46-5.15,5.48-9.83,5.34-11.49-.36-23,0-34.49-.15-3.23,0-4.48.85-5,4.36-1.46,9-7.39,30.69-5.79,34.86s20.71,5.76,27.61,6.17c9.49.56,5.21-15.68,14.61-22.84s78.68-26.84,85.44-27.89c7-2.27,15,8.73,7.57,16.6-4.1,4.57-68.76,23.24-73.62,25.13s-9,8-7,13,36,12,43,15,28-7,35.11-5.72c6.31,2.51,8.46,8.7,4,13.83-6.72,7.69-76.66,49-109.07,54.89s-56,9.64-102.49,4.82S877.85,1389,868.39,1384a79.25,79.25,0,0,0-25.39-9c-15.08-2.79-39.5-4-57.5-3s-47.24,8.7-58,13c-7.5,3-11.5-8-.75-11.65,12.48-4.25,37.75-11.35,58.75-13.35S838.81,1362,842.5,1362Z"/>
    <path id="Coffee" d="M993.78,579.83c65.72,0,92.72,17.17,97.76,23,4.26,4.91,8.24,22.36,8.55,23.74.54,2.5,1.41,9.46-.59,13.46s-4.15,6.5-11.48,9.1c-2.92,1-4.58,3.56-5,7.23-1.44,12-12.79,148.48-14.49,158.67-1.49,8.93-.89,17.67-10,23-2.79,1.63-24.89,11.06-64,11s-56.23-7-64.28-12c-6.07-3.79-8.86-9.76-8.85-17.24,0-4.88-14.08-148.89-14.87-156.78s-4.5-13-12.6-17.77c-2.77-1.63-5.52-5.46-5.87-8.56-.62-5.54,4.64-24.25,5.64-28.06,2-7.8,6.34-13.39,13.92-16.69C914.45,588.94,928.05,579.83,993.78,579.83ZM1051.5,778c-1.59-3.1-29.94,3.8-57,4-26.55.2-51.9-6.48-55-4-5,4-.44,39.11,4,43,3.69,3.23,28,9.8,53,9,23.45-.75,47.16-6.68,52-12C1052.31,813.81,1054.64,784.14,1051.5,778Zm-124-118c-5.66,0-4.34,25.67,2.33,29.84S968.5,696,995.5,697s62.31-3,66-11,3-22-2-24c-9.28-3.71-46,3-67,3S936.5,660,927.5,660Zm-18-39c-3.58-1.79-6,9-4,12s28.1,14.51,81.55,14.57c53.29,0,90.71-9.67,98-12.57,4.57-1.83,0-16-3.5-15-7,2-61.42,12.29-96.71,12.29S913.5,623,909.5,621Zm10-16c-.15,7,44,9,75,9s70.44-.47,74-7-42-14-80-14S919.65,598,919.5,605Z"/>
    <path id="C" d="M730.16,1099.85c5.12-2.2,8.37-1.43,10,5,1.35,5.29,2.86,10.56,4.68,15.7,2.87,8.1,2,10.35-5.76,14.11-22.51,11-45.94,12.8-70.45,8.72-17.12-2.86-32.85-8.85-46.39-19.19a102.93,102.93,0,0,1-33.45-43.83c-10.58-26.11-13.31-53.13-9.6-80.71,2.8-20.84,9-40.7,21.27-58.36a99.55,99.55,0,0,1,46-36.69c7.8-3.09,32.34-8.87,54.29-6.74,11.91,1.11,33.12,6.55,43.38,12.91,1.38.85,3.29,2.14,2.46,4.88-3.57,8.56-7.69,16.88-11.49,25.34-1.22,2.71-3.06,3.38-5.61,2.42-3.11-1.17-13.58-8.2-37.57-8.74-37,.16-70.79,34.18-71.74,76.4s8.53,65.21,30.23,84.21C678.32,1117.37,717.49,1105.3,730.16,1099.85Z"/>
    <path id="T" d="M1350.23,1036q0,46.74,0,93.47c0,8.52-.64,9.14-9,9.17q-14.51.06-29,0c-6.17,0-6.87-.71-6.88-7q-.08-37.5,0-75,0-57.24,0-114.47c0-7.35-1.06-8-8.52-7.83-19,.28-38,.25-57,.31-4.5,0-6.84-2.52-6.92-6.83-.15-8.66-.25-17.33.15-26,.49-4.9,7.34-4.75,9-4.75h172.45c7.29,0,7.77.42,7.77,7.54,0,7.49,0,15-.17,22.49-.14,6.5-1.25,7.54-7.67,7.54-19.16,0-38.32,0-57.49,0-6.5,0-6.67.18-6.67,6.8Q1350.23,988.77,1350.23,1036Z"/>
    <path id="cross" d="M1429.41,588,1415.59,574a5.2,5.2,0,0,0-7.34,0l-404.6,401.25a5.17,5.17,0,0,1-7.3,0L591.75,574a5.2,5.2,0,0,0-7.34,0L570.59,588a5.18,5.18,0,0,0,0,7.33L975,996.32a5.17,5.17,0,0,1,0,7.36l-404.36,401a5.18,5.18,0,0,0,0,7.33L584.41,1426a5.2,5.2,0,0,0,7.34,0l404.6-401.25a5.17,5.17,0,0,1,7.3,0L1408.25,1426a5.2,5.2,0,0,0,7.34,0l13.82-13.94a5.18,5.18,0,0,0,0-7.33l-404.36-401a5.17,5.17,0,0,1,0-7.36l404.36-401A5.18,5.18,0,0,0,1429.41,588Z"/>
    </g></g>
</svg>